HIERARCHY
ROOT Hips
{
	OFFSET -0.001795 -0.223333 0.028219
	CHANNELS 6 Xposition Yposition Zposition Zrotation Yrotation Xrotation 
	JOINT LeftUpLeg
	{
		OFFSET 0.069520 -0.091406 -0.006815
		CHANNELS 3 Zrotation Yrotation Xrotation
		JOINT LeftLeg
		{
			OFFSET 0.034277 -0.375199 -0.004496
			CHANNELS 3 Zrotation Yrotation Xrotation
			JOINT LeftFoot
			{
				OFFSET -0.013596 -0.397961 -0.043693
				CHANNELS 3 Zrotation Yrotation Xrotation
				JOINT LeftToe
				{
					OFFSET 0.026358 -0.055791 0.119288
					CHANNELS 3 Zrotation Yrotation Xrotation
					End Site
					{
						OFFSET 0.000000 0.000000 0.000000
					}
				}
			}
		}
	}
	JOINT RightUpLeg
	{
		OFFSET -0.067670 -0.090522 -0.004320
		CHANNELS 3 Zrotation Yrotation Xrotation
		JOINT RightLeg
		{
			OFFSET -0.038290 -0.382569 -0.008850
			CHANNELS 3 Zrotation Yrotation Xrotation
			JOINT RightFoot
			{
				OFFSET 0.015774 -0.398415 -0.042312
				CHANNELS 3 Zrotation Yrotation Xrotation
				JOINT RightToe
				{
					OFFSET -0.025372 -0.048144 0.123348
					CHANNELS 3 Zrotation Yrotation Xrotation
					End Site
					{
						OFFSET 0.000000 0.000000 0.000000
					}
				}
			}
		}
	}
	JOINT Spine
	{
		OFFSET -0.002533 0.108963 -0.026696
		CHANNELS 3 Zrotation Yrotation Xrotation
		JOINT Spine1
		{
			OFFSET 0.005487 0.135180 0.001092
			CHANNELS 3 Zrotation Yrotation Xrotation
			JOINT Spine2
			{
				OFFSET 0.001457 0.052922 0.025425
				CHANNELS 3 Zrotation Yrotation Xrotation
				JOINT Neck
				{
					OFFSET -0.002778 0.213870 -0.042857
					CHANNELS 3 Zrotation Yrotation Xrotation
					JOINT Head
					{
						OFFSET 0.005152 0.064970 0.051349
						CHANNELS 3 Zrotation Yrotation Xrotation
						End Site
						{
							OFFSET 0.000000 0.000000 0.000000
						}
					}
				}
				JOINT LeftShoulder
				{
					OFFSET 0.078845 0.121749 -0.034090
					CHANNELS 3 Zrotation Yrotation Xrotation
					JOINT LeftArm
					{
						OFFSET 0.090977 0.030469 -0.008868
						CHANNELS 3 Zrotation Yrotation Xrotation
						JOINT LeftForeArm
						{
							OFFSET 0.259612 -0.012772 -0.027456
							CHANNELS 3 Zrotation Yrotation Xrotation
							JOINT LeftHand
							{
								OFFSET 0.249234 0.008986 -0.001171
								CHANNELS 3 Zrotation Yrotation Xrotation
								End Site
								{
									OFFSET 0.000000 0.000000 0.000000
								}
							}
						}
					}
				}
				JOINT RightShoulder
				{
					OFFSET -0.081759 0.118833 -0.038615
					CHANNELS 3 Zrotation Yrotation Xrotation
					JOINT RightArm
					{
						OFFSET -0.096012 0.032551 -0.009143
						CHANNELS 3 Zrotation Yrotation Xrotation
						JOINT RightForeArm
						{
							OFFSET -0.253742 -0.013329 -0.021401
							CHANNELS 3 Zrotation Yrotation Xrotation
							JOINT RightHand
							{
								OFFSET -0.255298 0.007772 -0.005559
								CHANNELS 3 Zrotation Yrotation Xrotation
								End Site
								{
									OFFSET 0.000000 0.000000 0.000000
								}
							}
						}
					}
				}
			}
		}
	}
}
MOTION
Frames: 18
Frame Time: 0.050000
0.000000 0.941882 0.000000 -0.417579 -0.535656 -0.605206 9.401169 -0.040195 4.711733 -4.551838 0.475648 -5.083473 4.831006 12.287116 11.381421 0.000000 0.000000 0.000000 -6.267724 0.089709 1.199010 4.458172 -0.467543 1.450963 -4.649054 -13.157510 8.056583 0.000000 0.000000 0.000000 0.234442 -0.323118 7.553523 4.929019 -0.824381 -20.889707 -0.427400 -0.021063 27.215406 -0.331403 1.837704 -28.698523 0.000000 0.000000 0.000000 -29.408046 -4.559584 1.314054 -48.006002 -11.551240 -3.568744 -2.787601 -23.108695 1.720981 0.000000 0.000000 0.000000 19.289366 8.004624 3.230433 51.647911 7.250354 -4.339006 -6.482775 22.167038 -0.180465 0.000000 0.000000 0.000000 
-0.001499 0.941326 0.001526 -0.756412 -0.923104 -0.114465 9.804124 -0.055434 5.408215 -3.874209 0.434796 -7.297026 4.716630 12.219437 12.323880 0.000000 0.000000 0.000000 -6.059387 0.135032 0.346035 4.627752 -0.482481 1.774874 -4.623676 -13.107603 7.928498 0.000000 0.000000 0.000000 0.732385 -0.353785 7.414660 4.984665 -0.826888 -21.107873 -0.680388 0.271183 26.603572 -0.273631 1.853814 -29.274299 0.000000 0.000000 0.000000 -29.753802 -4.277073 1.049174 -48.124496 -11.248270 -3.613266 -3.684263 -22.616610 1.845622 0.000000 0.000000 0.000000 19.271817 8.134097 3.303536 52.361490 6.176272 -4.771616 -7.638286 23.882394 -0.399183 0.000000 0.000000 0.000000 
-0.002817 0.940633 0.002879 -0.678018 -0.473513 0.034773 9.810262 -0.078024 4.880859 -3.935018 0.432259 -5.959380 4.735181 12.139641 11.431353 0.000000 0.000000 0.000000 -6.118530 0.137478 0.230608 4.829872 -0.512975 2.099973 -4.657568 -13.096433 7.608821 0.000000 0.000000 0.000000 0.927559 -0.372201 7.461328 5.039414 -0.786526 -21.736888 -0.899513 -0.451287 26.711094 -0.306915 1.853528 -30.612426 0.000000 0.000000 0.000000 -29.518123 -4.043594 1.088572 -48.229980 -12.002094 -3.388633 -3.551490 -21.207804 1.704527 0.000000 0.000000 0.000000 19.067073 7.999756 3.100470 52.428996 5.944387 -4.838683 -7.217692 23.157216 -0.334996 0.000000 0.000000 0.000000 
-0.004344 0.940187 0.004257 -0.648837 -0.838700 -0.077769 9.893562 -0.063666 5.426551 -3.860743 0.432402 -6.292426 4.975545 12.512690 11.516760 0.000000 0.000000 0.000000 -6.125897 0.138591 0.295335 4.787981 -0.502874 1.953077 -4.578974 -12.999725 7.849519 0.000000 0.000000 0.000000 0.582465 -0.342087 7.396613 5.644341 -0.973083 -21.490163 -1.163164 -0.554207 26.223883 -0.403339 1.831367 -30.058039 0.000000 0.000000 0.000000 -30.066972 -3.839361 1.029892 -47.960924 -11.709296 -3.467806 -4.042215 -20.702897 1.743832 0.000000 0.000000 0.000000 19.076877 8.661944 3.355806 52.689175 5.788808 -4.856349 -8.001572 24.210284 -0.515468 0.000000 0.000000 0.000000 
-0.006092 0.940517 0.005503 -0.613362 -0.523194 -0.255022 9.814043 -0.064820 5.586060 -3.610727 0.414850 -6.097749 4.743460 12.181868 11.606439 0.000000 0.000000 0.000000 -5.991525 0.112845 0.607328 4.456765 -0.467014 1.785063 -4.700536 -13.236803 7.918229 0.000000 0.000000 0.000000 0.534787 -0.356561 7.780352 6.154064 -1.120085 -21.326795 -1.464786 -0.827167 25.477917 -0.471592 1.849745 -29.739155 0.000000 0.000000 0.000000 -29.819089 -3.855499 1.027234 -48.400988 -11.648521 -3.423539 -4.544243 -20.416855 1.799402 0.000000 0.000000 0.000000 19.540851 8.197819 3.058407 52.499708 6.563208 -4.424847 -8.412686 24.353869 -0.603392 0.000000 0.000000 0.000000 
-0.008152 0.940500 0.006500 -0.466767 -0.529387 -0.120862 9.727540 -0.061345 5.690009 -3.371060 0.402431 -6.370636 4.828499 12.350282 11.830542 0.000000 0.000000 0.000000 -6.012813 0.124501 0.418617 4.294406 -0.447273 1.691245 -4.631153 -13.099938 7.928905 0.000000 0.000000 0.000000 0.301319 -0.332534 7.637611 6.132947 -1.111565 -21.345896 -1.254498 -1.130346 25.295040 -0.528658 1.810766 -29.344978 0.000000 0.000000 0.000000 -29.711423 -3.876097 1.160836 -48.468666 -11.661156 -3.438262 -4.827022 -19.925784 1.801371 0.000000 0.000000 0.000000 19.615893 8.497166 3.128823 52.264792 6.792963 -4.278772 -8.957900 25.330824 -0.758714 0.000000 0.000000 0.000000 
-0.010800 0.941005 0.007034 -0.384907 -0.413838 -0.138203 9.844916 -0.072510 5.573517 -3.535569 0.409456 -6.141901 4.941283 12.612300 12.328997 0.000000 0.000000 0.000000 -5.817818 0.118558 0.392881 4.140914 -0.429283 1.915762 -4.585240 -13.000341 7.929882 0.000000 0.000000 0.000000 0.131078 -0.328376 7.841603 6.366920 -1.178606 -21.262636 -1.264342 -1.312146 25.013307 -0.386130 1.709376 -29.196038 0.000000 0.000000 0.000000 -29.874628 -3.988141 1.262219 -48.071353 -11.402024 -3.515551 -5.368545 -20.088702 1.907087 0.000000 0.000000 0.000000 20.227128 8.774918 3.240149 51.597324 7.322006 -3.979525 -9.225156 26.005802 -0.851525 0.000000 0.000000 0.000000 
-0.014253 0.941396 0.007318 -0.323874 -0.698818 -0.082619 9.833896 -0.063570 5.479635 -3.406314 0.403469 -5.855189 5.206072 13.024873 12.477232 0.000000 0.000000 0.000000 -5.428121 0.120138 0.245356 4.170195 -0.428662 2.182001 -4.687167 -13.156691 7.542536 0.000000 0.000000 0.000000 -0.003953 -0.320099 7.928364 6.540756 -1.227653 -21.279109 -1.120845 -1.132525 24.951424 -0.055882 1.496536 -28.459740 0.000000 0.000000 0.000000 -29.647053 -4.147218 1.380140 -47.941642 -11.245410 -3.571238 -5.709229 -20.164980 1.972029 0.000000 0.000000 0.000000 20.359911 8.903912 3.308588 51.691305 8.024486 -3.688801 -9.282555 26.112846 -0.865688 0.000000 0.000000 0.000000 
-0.018475 0.941588 0.007334 -0.246338 -0.523416 -0.075410 9.901862 -0.073649 5.402097 -3.533185 0.408949 -5.624326 5.325460 13.210326 12.364470 0.000000 0.000000 0.000000 -5.027962 0.101211 0.355018 4.135667 -0.426845 2.070352 -5.036286 -13.838139 7.453188 0.000000 0.000000 0.000000 -0.119770 -0.319608 8.126025 6.712852 -1.278990 -21.210746 -0.946640 -1.207289 24.815025 -0.164519 1.531922 -27.883088 0.000000 0.000000 0.000000 -29.607320 -4.265860 1.436459 -47.644054 -11.307396 -3.515819 -6.302617 -20.458783 2.102177 0.000000 0.000000 0.000000 20.462541 9.395801 3.588519 51.407770 8.452241 -3.483250 -9.189438 26.456613 -0.864119 0.000000 0.000000 0.000000 
-0.023362 0.941812 0.007185 -0.216242 -0.229334 -0.055744 10.116943 -0.097715 5.162805 -3.721499 0.417064 -5.356421 5.488482 13.489008 12.393594 0.000000 0.000000 0.000000 -4.673705 0.092586 0.287382 4.000587 -0.413916 1.920962 -5.170442 -14.092915 7.454963 0.000000 0.000000 0.000000 -0.090077 -0.332957 8.371880 6.771019 -1.290924 -21.180756 -0.808663 -1.103659 24.626659 -0.384857 1.694752 -27.803050 0.000000 0.000000 0.000000 -29.559365 -4.457418 1.446246 -47.539209 -11.054296 -3.563753 -6.339396 -20.894970 2.151508 0.000000 0.000000 0.000000 20.503614 9.678238 3.825153 51.484267 8.779344 -3.348377 -8.916040 26.315384 -0.791255 0.000000 0.000000 0.000000 
-0.028589 0.941769 0.006888 -0.102264 0.084058 0.031403 10.362308 -0.124689 4.716419 -3.748607 0.415372 -4.961691 5.619289 13.717917 12.420230 0.000000 0.000000 0.000000 -4.647722 0.083887 0.382852 4.074696 -0.427768 1.485604 -5.051430 -13.859582 7.610408 0.000000 0.000000 0.000000 -0.145873 -0.340097 8.636826 6.748879 -1.266360 -21.320164 -0.676996 -0.923784 24.636267 -0.757485 1.952935 -27.687577 0.000000 0.000000 0.000000 -29.495957 -4.273814 1.167972 -47.306746 -10.652636 -3.657655 -6.803583 -21.710761 2.322581 0.000000 0.000000 0.000000 20.612186 9.918765 4.072176 51.505154 8.957575 -3.294558 -8.429907 26.557643 -0.680902 0.000000 0.000000 0.000000 
-0.034043 0.942070 0.006649 -0.035124 0.378375 0.014310 10.700160 -0.150560 4.029146 -3.818286 0.417209 -3.849521 5.760822 13.940089 12.264641 0.000000 0.000000 0.000000 -4.332988 0.056522 0.637922 4.258681 -0.453529 1.276429 -5.464228 -14.661723 7.486894 0.000000 0.000000 0.000000 0.002968 -0.367561 8.962528 6.743033 -1.262267 -21.300700 -0.474583 -0.727300 24.834636 -0.833765 2.045418 -27.517031 0.000000 0.000000 0.000000 -29.798883 -4.224434 0.978577 -47.016671 -10.007616 -3.866028 -6.883149 -23.117806 2.498847 0.000000 0.000000 0.000000 20.786456 10.054289 4.271612 51.316582 8.940793 -3.342423 -7.895081 26.660688 -0.554098 0.000000 0.000000 0.000000 
-0.039627 0.942411 0.006646 0.158097 0.609847 -0.014795 10.633263 -0.152267 3.342064 -3.643049 0.399985 -2.630888 5.919869 14.180626 12.095641 0.000000 0.000000 0.000000 -4.227760 0.045085 0.732184 4.591899 -0.495613 1.197727 -5.413253 -14.548287 7.481562 0.000000 0.000000 0.000000 0.179524 -0.394043 9.208435 6.707081 -1.280161 -20.932520 -0.401820 -0.157665 25.012843 -0.814147 2.150333 -27.552682 0.000000 0.000000 0.000000 -29.918274 -4.307521 0.740957 -46.638307 -9.371508 -4.013470 -7.508227 -24.542755 2.779695 0.000000 0.000000 0.000000 20.846290 10.021524 4.473027 51.399523 8.825735 -3.460593 -7.260130 27.101203 -0.390759 0.000000 0.000000 0.000000 
-0.045209 0.942837 0.007096 0.264993 1.047562 -0.257587 10.670706 -0.157717 2.015929 -3.677744 0.394489 0.293330 5.967980 14.105215 10.704800 0.000000 0.000000 0.000000 -3.901854 -0.009952 1.326310 4.999190 -0.548232 0.880763 -5.686619 -15.070535 7.387163 0.000000 0.000000 0.000000 0.228558 -0.432015 9.921605 6.833813 -1.310728 -20.915451 -0.233623 0.121411 25.266145 -0.976156 2.310760 -27.171599 0.000000 0.000000 0.000000 -29.922940 -4.046861 0.351156 -46.504192 -8.969848 -4.115663 -7.952076 -26.013819 3.051231 0.000000 0.000000 0.000000 21.029117 10.038847 4.658388 50.967923 9.015886 -3.430501 -6.655668 26.799312 -0.239493 0.000000 0.000000 0.000000 
-0.050365 0.943078 0.007645 0.571827 1.543767 -0.486105 10.744620 -0.162689 0.446152 -4.044518 0.431722 3.632985 5.844182 13.812745 9.805976 0.000000 0.000000 0.000000 -3.770928 -0.058151 1.871832 5.083734 -0.563568 0.648336 -5.865456 -15.353975 6.722518 0.000000 0.000000 0.000000 0.421654 -0.481084 10.540646 6.637814 -1.283612 -20.512775 -0.081746 0.661663 25.247106 -1.329742 2.634986 -26.937643 0.000000 0.000000 0.000000 -29.875399 -3.814829 -0.147734 -46.607965 -8.147868 -4.328872 -8.365100 -27.598693 3.326027 0.000000 0.000000 0.000000 20.931620 9.809201 4.775299 51.201864 8.652163 -3.651268 -6.232484 27.221686 -0.108509 0.000000 0.000000 0.000000 
-0.054461 0.943560 0.008247 0.997163 2.449294 -0.796463 10.517159 -0.171949 -1.805009 -4.670969 0.521423 8.529971 6.212303 14.339171 8.957428 0.000000 0.000000 0.000000 -3.673450 -0.123264 2.581704 5.302587 -0.599892 0.373414 -6.412010 -16.442006 6.490026 0.000000 0.000000 0.000000 0.733064 -0.568057 11.538057 6.190621 -1.129746 -20.673180 -0.074269 0.525744 25.797611 -1.484782 2.794804 -27.267343 0.000000 0.000000 0.000000 -29.948293 -3.421025 -0.564649 -46.551809 -7.781350 -4.462447 -8.702890 -28.993810 3.590599 0.000000 0.000000 0.000000 20.820487 9.563667 4.771429 50.685491 8.887009 -3.622384 -5.418429 27.341477 0.084961 0.000000 0.000000 0.000000 
-0.056997 0.943995 0.009264 1.340539 2.958140 -0.975840 10.281409 -0.185137 -4.765188 -5.821645 0.768101 14.074831 6.640424 14.975143 8.282235 0.000000 0.000000 0.000000 -3.928121 -0.155936 3.085914 5.316632 -0.606325 0.122792 -6.603649 -16.822811 6.359559 0.000000 0.000000 0.000000 0.895149 -0.621579 12.149999 5.885573 -1.078474 -20.110481 0.045541 1.197272 25.727432 -1.709710 3.075867 -27.186280 0.000000 0.000000 0.000000 -29.537408 -3.178701 -1.092710 -46.892463 -7.196057 -4.590920 -9.753438 -29.368907 3.865303 0.000000 0.000000 0.000000 21.028358 9.577644 5.076975 50.148387 9.112307 -3.574772 -4.932801 26.858447 0.211250 0.000000 0.000000 0.000000 
-0.057786 0.945586 0.011018 1.590024 3.662395 -0.706651 10.394136 -0.217570 -7.607940 -7.610995 1.229692 18.196897 6.886895 15.469839 8.668994 0.000000 0.000000 0.000000 -3.975834 -0.133766 2.707857 5.690256 -0.668449 0.806675 -7.627754 -18.910906 7.414009 0.000000 0.000000 0.000000 1.232772 -0.715884 12.965655 5.747471 -0.980365 -20.617367 0.363355 1.568276 25.603350 -2.442063 3.602826 -27.091213 0.000000 0.000000 0.000000 -30.428435 -2.596185 -1.930957 -46.335070 -5.912389 -4.872643 -11.334052 -31.023953 4.491200 0.000000 0.000000 0.000000 20.073253 9.303866 5.088489 49.911309 8.913255 -3.679070 -3.595215 26.574160 0.515261 0.000000 0.000000 0.000000 
